<svg id="Layer_1" data-name="Layer 1" xmlns="http://www.w3.org/2000/svg" viewBox="0 0 458.14 458.14"><defs><style>.cls-1{fill:#f15a29;}.cls-2{fill:#00a651;}.cls-3{fill:none;}.cls-4{fill:#603913;}.cls-5{fill:#fff;}.cls-6{fill:#231f20;}</style></defs><circle class="cls-1" cx="229.07" cy="229.07" r="229.07"/><path class="cls-2" d="M249.93,381.78H204a269.61,269.61,0,0,1-51.3-76.58C107.6,203.05,142,104,152.71,76.36H305.43c9.69,23.76,48.42,126.3,0,229.15A255.28,255.28,0,0,1,249.93,381.78Z"/><polyline class="cls-3" points="0 458.14 0 0 458.14 0 458.14 458.14"/><path class="cls-4" d="M185.41,76.36h-32.7c-.8-1.78-6.05-13.88,0-26.83,7.17-15.33,23.65-17.92,24.87-18.09h0a27.65,27.65,0,0,0-7.87,26.74C172.93,70.67,184,75.74,185.41,76.36Z"/><path class="cls-4" d="M203.2,76.05H170.5c-.8-1.78-6.05-13.88,0-26.83,7.17-15.33,23.65-17.92,24.87-18.09h0a27.65,27.65,0,0,0-7.87,26.74C190.72,70.36,201.8,75.43,203.2,76.05Z"/><path class="cls-4" d="M221.86,76.05H189.17c-.81-1.78-6.06-13.88,0-26.83C196.33,33.89,212.81,31.3,214,31.13h0a27.65,27.65,0,0,0-7.87,26.74C209.38,70.36,220.46,75.43,221.86,76.05Z"/><path class="cls-4" d="M239.65,76.05H207c-.8-1.78-6-13.88,0-26.83,7.17-15.33,23.65-17.92,24.87-18.09h0A27.65,27.65,0,0,0,224,57.87C227.17,70.36,238.25,75.43,239.65,76.05Z"/><path class="cls-4" d="M257.44,76.05h-32.7c-.8-1.78-6.05-13.88,0-26.83,7.17-15.33,23.65-17.92,24.87-18.09h0a27.65,27.65,0,0,0-7.87,26.74C245,70.36,256,75.43,257.44,76.05Z"/><path class="cls-4" d="M274.23,76.05h-32.7c-.8-1.78-6.05-13.88,0-26.83,7.17-15.33,23.65-17.92,24.87-18.09h0a27.65,27.65,0,0,0-7.87,26.74C261.75,70.36,272.83,75.43,274.23,76.05Z"/><path class="cls-4" d="M292,76.05h-32.7c-.81-1.78-6-13.88,0-26.83C266.49,33.89,283,31.3,284.19,31.13h0a27.65,27.65,0,0,0-7.87,26.74C279.54,70.36,290.62,75.43,292,76.05Z"/><path class="cls-4" d="M305.43,76.05h-32.7c-.81-1.78-6.06-13.88,0-26.83,7.16-15.33,23.65-17.92,24.86-18.09h0a27.62,27.62,0,0,0-7.86,26.74C292.94,70.36,304,75.43,305.43,76.05Z"/><ellipse class="cls-5" cx="205.38" cy="172.89" rx="26.69" ry="36.46"/><ellipse class="cls-6" cx="203.2" cy="172.89" rx="12.52" ry="17.11"/><ellipse class="cls-5" cx="253.01" cy="172.89" rx="26.69" ry="36.46"/><ellipse class="cls-6" cx="253.01" cy="172.89" rx="12.52" ry="17.11"/><path class="cls-2" d="M227.16,398.35a77.08,77.08,0,0,1-20.65-14.06c-.87-.83-1.7-1.67-2.5-2.51h45.92c-1.6.08-16,1-21.14,11.18A16.29,16.29,0,0,0,227.16,398.35Z"/><path class="cls-2" d="M226.79,398.35a77.2,77.2,0,0,0,20.64-14.06c.87-.83,1.7-1.67,2.5-2.51H204c1.6.08,16,1,21.14,11.18A16.52,16.52,0,0,1,226.79,398.35Z"/><circle class="cls-6" cx="251.92" cy="265.27" r="36.2"/><polygon class="cls-6" points="249.93 327.76 353.59 390.25 353.59 265.27 249.93 327.76"/><polygon class="cls-6" points="105.89 327.76 157.72 359 157.72 296.51 105.89 327.76"/><rect class="cls-6" x="157.72" y="316.53" width="130.4" height="22.45"/></svg>